<svg xmlns="http://www.w3.org/2000/svg" viewBox="0 0 372 68" role="img" aria-label="MideSofek/Tools">
  <title>MideSofek/Tools</title>
  <desc>MideSofek/Tools brand logo, hard-coded near-black fill for print/PDF contexts.</desc>

  <g fill="#0A0A0A" opacity="0.35">
    <circle cx="20" cy="10" r="1.8"/>
    <circle cx="32" cy="10" r="1.8"/>
    <circle cx="44" cy="10" r="1.8"/>
    <circle cx="32" cy="22" r="1.8"/>
    <circle cx="20" cy="34" r="1.8"/>
    <circle cx="44" cy="34" r="1.8"/>
    <circle cx="20" cy="46" r="1.8"/>
    <circle cx="32" cy="46" r="1.8"/>
    <circle cx="44" cy="46" r="1.8"/>
    <circle cx="20" cy="58" r="1.8"/>
    <circle cx="32" cy="58" r="1.8"/>
    <circle cx="44" cy="58" r="1.8"/>
  </g>

  <g fill="#0A0A0A">
    <circle cx="8" cy="10" r="3.5"/>
    <circle cx="56" cy="10" r="3.5"/>
    <circle cx="8" cy="22" r="3.5"/>
    <circle cx="20" cy="22" r="3.5"/>
    <circle cx="44" cy="22" r="3.5"/>
    <circle cx="56" cy="22" r="3.5"/>
    <circle cx="8" cy="34" r="3.5"/>
    <circle cx="32" cy="34" r="3.5"/>
    <circle cx="56" cy="34" r="3.5"/>
    <circle cx="8" cy="46" r="3.5"/>
    <circle cx="56" cy="46" r="3.5"/>
    <circle cx="8" cy="58" r="3.5"/>
    <circle cx="56" cy="58" r="3.5"/>
  </g>

  <text x="80" y="44" fill="#0A0A0A" font-family="'IBM Plex Mono', ui-monospace, 'SFMono-Regular', Menlo, Consolas, monospace" font-size="32" font-weight="500" letter-spacing="-0.02em">
    <tspan>MideSofek</tspan><tspan opacity="0.45">/</tspan><tspan>Tools</tspan>
  </text>
</svg>
